<svg width="23" height="23" viewBox="0 0 23 23" fill="none" xmlns="http://www.w3.org/2000/svg">
    <g id="dribbble">
        <path fill-rule="evenodd" clip-rule="evenodd" d="M16.5 4C10.152 4 5 9.152 5 15.5C5 21.848 10.152 27 16.5 27C22.8365 27 28 21.848 28 15.5C28 9.152 22.8365 4 16.5 4ZM24.0958 9.3015C25.5115 11.0255 26.2951 13.1817 26.3167 15.4123C25.9918 15.3505 22.7488 14.6892 19.4814 15.1004C19.4066 14.9394 19.3434 14.764 19.2686 14.5901C19.0688 14.1157 18.8446 13.6298 18.6203 13.1669C22.2371 11.6964 23.8844 9.57606 24.0972 9.30006L24.0958 9.3015ZM16.5 5.69625C18.9941 5.69625 21.2768 6.63063 23.0119 8.16587C22.8365 8.416 21.3516 10.3983 17.8599 11.7079C16.2499 8.75238 14.4674 6.33162 14.1928 5.95788C14.9491 5.78129 15.7234 5.69349 16.5 5.69625ZM12.3212 6.61913C13.6375 8.44338 14.8535 10.3379 15.9638 12.2944C11.3739 13.5162 7.32012 13.4918 6.88312 13.4918C7.19917 12.005 7.85438 10.6114 8.79766 9.41949C9.74094 8.22761 10.9468 7.26973 12.3212 6.62056V6.61913ZM6.67181 15.5144V15.2125C7.09588 15.2269 11.8612 15.2887 16.7631 13.8167C17.0491 14.3644 17.3108 14.9264 17.5609 15.4871L17.1728 15.5992C12.1099 17.2336 9.416 21.6985 9.19031 22.0737C7.56856 20.2734 6.67131 17.936 6.67181 15.5129V15.5144ZM16.5 25.3282C14.3172 25.3316 12.1964 24.6027 10.4769 23.2582C10.6494 22.8959 12.6461 19.0549 18.1833 17.1215C18.2092 17.1086 18.2207 17.1086 18.2466 17.0971C19.1801 19.5068 19.8814 22.0002 20.341 24.5433C19.1277 25.0646 17.8205 25.3318 16.5 25.3282ZM21.9769 23.6449C21.8763 23.0454 21.3516 20.1776 20.0679 16.6471C23.1484 16.1613 25.8423 16.9591 26.1787 17.0712C25.9692 18.3975 25.4876 19.6662 24.7643 20.7974C24.0409 21.9287 23.0914 22.8982 21.9754 23.6449H21.9769Z" fill="currentColor"/>
    </g>
    <g id="bitcoin">
        <path d="M4.13235 21.2308V23.5385C4.13235 23.7932 4.33823 24 4.59191 24H6.43015C6.55203 24 6.66892 23.9514 6.7551 23.8648C6.84129 23.7783 6.88971 23.6609 6.88971 23.5385V21.2308H7.80882V23.5385C7.80882 23.7932 8.01471 24 8.26838 24H10.1066C10.2285 24 10.3454 23.9514 10.4316 23.8648C10.5178 23.7783 10.5662 23.6609 10.5662 23.5385V21.2308H10.7206C14.3824 21.2308 17 19.3237 17 16.0246C17 13.2517 15.1489 11.736 12.9816 11.52V11.3575C14.7647 10.9108 16.0754 9.55938 16.0754 7.31446C16.0754 4.48615 13.9614 2.76923 10.7353 2.76923H10.5662V0.461538C10.5662 0.339131 10.5178 0.221737 10.4316 0.135182C10.3454 0.0486263 10.2285 0 10.1066 0H8.26838C8.1465 0 8.02961 0.0486263 7.94343 0.135182C7.85724 0.221737 7.80882 0.339131 7.80882 0.461538V2.76923H6.75551V0.461538C6.75551 0.339131 6.7071 0.221737 6.62091 0.135182C6.53473 0.0486263 6.41784 0 6.29596 0H4.59191C4.47003 0 4.35314 0.0486263 4.26695 0.135182C4.18077 0.221737 4.13235 0.339131 4.13235 0.461538V2.76923L0.459559 2.78954C0.337676 2.78954 0.220785 2.83816 0.134601 2.92472C0.0484173 3.01128 0 3.12867 0 3.25108V5.07692C0 5.32985 0.202206 5.53846 0.455882 5.53846L1.84375 5.52923C2.2078 5.53167 2.55612 5.67862 2.81268 5.93802C3.06925 6.19743 3.21324 6.54822 3.21324 6.91385V17.0769C3.21324 17.4441 3.06798 17.7963 2.80943 18.056C2.55088 18.3157 2.20021 18.4615 1.83456 18.4615L0.459559 18.4818C0.337676 18.4818 0.220785 18.5305 0.134601 18.617C0.0484173 18.7036 0 18.821 0 18.9434V20.7895C0 21.0443 0.205882 21.2511 0.459559 21.2511L4.13235 21.2308ZM6.75551 5.51446H9.91544C11.5809 5.51446 12.5588 6.43385 12.5588 7.93661C12.5588 9.54461 11.5018 10.4511 9.10846 10.4511H6.75551V5.51446ZM6.75551 12.9932H10.1379C12.2279 12.9932 13.3658 14.064 13.3658 15.8068C13.3658 17.5662 12.2151 18.4837 9.3989 18.4837H6.75551V12.9951V12.9932Z"
              fill="#ABB2BF"/>
    </g>
    <g id="card">
        <path d="M0 2.66667C0 1.95942 0.289731 1.28115 0.805456 0.781048C1.32118 0.280951 2.02065 0 2.75 0H19.25C19.9793 0 20.6788 0.280951 21.1945 0.781048C21.7103 1.28115 22 1.95942 22 2.66667V9.33333H0V2.66667ZM15.8125 4C15.6302 4 15.4553 4.07024 15.3264 4.19526C15.1974 4.32029 15.125 4.48986 15.125 4.66667V6C15.125 6.17681 15.1974 6.34638 15.3264 6.4714C15.4553 6.59643 15.6302 6.66667 15.8125 6.66667H18.5625C18.7448 6.66667 18.9197 6.59643 19.0486 6.4714C19.1776 6.34638 19.25 6.17681 19.25 6V4.66667C19.25 4.48986 19.1776 4.32029 19.0486 4.19526C18.9197 4.07024 18.7448 4 18.5625 4H15.8125ZM0 12V13.3333C0 14.0406 0.289731 14.7189 0.805456 15.219C1.32118 15.719 2.02065 16 2.75 16H19.25C19.9793 16 20.6788 15.719 21.1945 15.219C21.7103 14.7189 22 14.0406 22 13.3333V12H0Z"
              fill="#ABB2BF"/>
    </g>
    <g id="discord">
        <path d="M24.1641 7.65906C22.543 6.87826 20.8325 6.32099 19.0751 6.00114C19.0592 5.99832 19.0428 6.00076 19.0283 6.0081C19.0137 6.01544 19.0017 6.02733 18.9938 6.04214C18.7735 6.45211 18.5298 6.98835 18.3595 7.40816C16.4651 7.10643 14.5383 7.10643 12.6439 7.40816C12.4539 6.9405 12.239 6.48443 12.0002 6.04214C11.9922 6.02749 11.9801 6.01574 11.9656 6.00842C11.9511 6.0011 11.9348 5.99856 11.9189 6.00114C10.1611 6.31928 8.45021 6.87684 6.82991 7.65906C6.81605 7.66461 6.80445 7.67504 6.7971 7.68858C3.55651 12.7706 2.66745 17.7279 3.10339 22.623C3.10495 22.6459 3.11901 22.6689 3.1362 22.6836C5.02325 24.1507 7.13396 25.2708 9.37832 25.9962C9.39417 26.0014 9.4112 26.0013 9.42693 25.9957C9.44267 25.99 9.45629 25.9793 9.46582 25.965C9.94707 25.2763 10.3752 24.5498 10.7439 23.7856C10.7516 23.7699 10.7543 23.752 10.7514 23.7345C10.7486 23.7171 10.7405 23.7011 10.7283 23.6889C10.7202 23.6809 10.7107 23.6747 10.7002 23.6708C10.027 23.3993 9.37503 23.0731 8.7502 22.6951C8.73275 22.6847 8.71977 22.6677 8.71395 22.6476C8.70814 22.6274 8.70993 22.6057 8.71895 22.5869C8.72427 22.5747 8.73231 22.564 8.74239 22.5557C8.87364 22.4524 9.00489 22.3442 9.12989 22.236C9.14093 22.2266 9.15418 22.2206 9.16821 22.2186C9.18225 22.2166 9.19655 22.2186 9.20957 22.2245C13.3017 24.1858 17.7314 24.1858 21.7735 22.2245C21.787 22.2183 21.8018 22.2162 21.8164 22.2182C21.831 22.2202 21.8448 22.2264 21.8563 22.236C21.9813 22.3442 22.1126 22.4524 22.2438 22.5557C22.2544 22.5639 22.263 22.5747 22.2687 22.5872C22.2744 22.5996 22.277 22.6134 22.2764 22.6272C22.2758 22.641 22.2719 22.6544 22.2651 22.6663C22.2584 22.6781 22.2489 22.688 22.2376 22.6951C21.6142 23.0765 20.9614 23.4024 20.286 23.6692C20.2752 23.6733 20.2655 23.6798 20.2574 23.6883C20.2493 23.6968 20.243 23.7071 20.2391 23.7184C20.2355 23.7294 20.2341 23.741 20.2349 23.7525C20.2357 23.7641 20.2387 23.7754 20.2438 23.7856C20.6188 24.5482 21.0485 25.2763 21.5204 25.965C21.5299 25.9793 21.5435 25.99 21.5593 25.9957C21.575 26.0013 21.592 26.0014 21.6079 25.9962C23.856 25.2731 25.9701 24.1528 27.8594 22.6836C27.8688 22.6768 27.8767 22.6677 27.8824 22.6572C27.8881 22.6467 27.8914 22.635 27.8922 22.623C28.4141 16.9637 27.0188 12.0474 24.1954 7.69022C24.1925 7.68302 24.1883 7.67653 24.1829 7.67116C24.1775 7.66579 24.1711 7.66167 24.1641 7.65906ZM11.3549 19.6417C10.1221 19.6417 9.10801 18.4544 9.10801 16.9982C9.10801 15.5403 10.1033 14.353 11.3549 14.353C12.6158 14.353 13.6205 15.5502 13.6017 16.9982C13.6017 18.4544 12.6064 19.6417 11.3549 19.6417ZM19.661 19.6417C18.4298 19.6417 17.4142 18.4544 17.4142 16.9982C17.4142 15.5403 18.4095 14.353 19.661 14.353C20.922 14.353 21.9282 15.5502 21.9079 16.9982C21.9079 18.4544 20.922 19.6417 19.661 19.6417Z"
              fill="currentColor"/>
    </g>
    <g id="dots4x4">
        <circle cx="2" cy="2" r="2" fill="#ABB2BF"/>
        <circle cx="6" cy="2" r="2" fill="#ABB2BF"/>
        <circle cx="10" cy="2" r="2" fill="#ABB2BF"/>
        <circle cx="14" cy="2" r="2" fill="#ABB2BF"/>
        <circle cx="2" cy="22" r="2" fill="#ABB2BF"/>
        <circle cx="6" cy="22" r="2" fill="#ABB2BF"/>
        <circle cx="10" cy="22" r="2" fill="#ABB2BF"/>
        <circle cx="14" cy="22" r="2" fill="#ABB2BF"/>
        <circle cx="2" cy="42" r="2" fill="#ABB2BF"/>
        <circle cx="6" cy="42" r="2" fill="#ABB2BF"/>
        <circle cx="10" cy="42" r="2" fill="#ABB2BF"/>
        <circle cx="14" cy="42" r="2" fill="#ABB2BF"/>
        <circle cx="2" cy="62" r="2" fill="#ABB2BF"/>
        <circle cx="6" cy="62" r="2" fill="#ABB2BF"/>
        <circle cx="10" cy="62" r="2" fill="#ABB2BF"/>
        <circle cx="14" cy="62" r="2" fill="#ABB2BF"/>
    </g>
    <g id="dots5x5">
        <circle cx="2" cy="2" r="2" fill="#ABB2BF"/>
        <circle cx="22" cy="2" r="2" fill="#ABB2BF"/>
        <circle cx="42" cy="2" r="2" fill="#ABB2BF"/>
        <circle cx="62" cy="2" r="2" fill="#ABB2BF"/>
        <circle cx="82" cy="2" r="2" fill="#ABB2BF"/>
        <circle cx="2" cy="22" r="2" fill="#ABB2BF"/>
        <circle cx="22" cy="22" r="2" fill="#ABB2BF"/>
        <circle cx="42" cy="22" r="2" fill="#ABB2BF"/>
        <circle cx="62" cy="22" r="2" fill="#ABB2BF"/>
        <circle cx="82" cy="22" r="2" fill="#ABB2BF"/>
        <circle cx="2" cy="42" r="2" fill="#ABB2BF"/>
        <circle cx="22" cy="42" r="2" fill="#ABB2BF"/>
        <circle cx="42" cy="42" r="2" fill="#ABB2BF"/>
        <circle cx="62" cy="42" r="2" fill="#ABB2BF"/>
        <circle cx="82" cy="42" r="2" fill="#ABB2BF"/>
        <circle cx="2" cy="62" r="2" fill="#ABB2BF"/>
        <circle cx="22" cy="62" r="2" fill="#ABB2BF"/>
        <circle cx="42" cy="62" r="2" fill="#ABB2BF"/>
        <circle cx="62" cy="62" r="2" fill="#ABB2BF"/>
        <circle cx="82" cy="62" r="2" fill="#ABB2BF"/>
        <circle cx="2" cy="82" r="2" fill="#ABB2BF"/>
        <circle cx="22" cy="82" r="2" fill="#ABB2BF"/>
        <circle cx="42" cy="82" r="2" fill="#ABB2BF"/>
        <circle cx="62" cy="82" r="2" fill="#ABB2BF"/>
        <circle cx="82" cy="82" r="2" fill="#ABB2BF"/>
    </g>
    <g id="dots5x4">
        <circle cx="2" cy="2" r="2" fill="#ABB2BF"/>
        <circle cx="27" cy="2" r="2" fill="#ABB2BF"/>
        <circle cx="52" cy="2" r="2" fill="#ABB2BF"/>
        <circle cx="77" cy="2" r="2" fill="#ABB2BF"/>
        <circle cx="102" cy="2" r="2" fill="#ABB2BF"/>
        <circle cx="2" cy="19.3334" r="2" fill="#ABB2BF"/>
        <circle cx="27" cy="19.3334" r="2" fill="#ABB2BF"/>
        <circle cx="52" cy="19.3334" r="2" fill="#ABB2BF"/>
        <circle cx="77" cy="19.3334" r="2" fill="#ABB2BF"/>
        <circle cx="102" cy="19.3334" r="2" fill="#ABB2BF"/>
        <circle cx="2" cy="36.6666" r="2" fill="#ABB2BF"/>
        <circle cx="27" cy="36.6666" r="2" fill="#ABB2BF"/>
        <circle cx="52" cy="36.6666" r="2" fill="#ABB2BF"/>
        <circle cx="77" cy="36.6666" r="2" fill="#ABB2BF"/>
        <circle cx="102" cy="36.6666" r="2" fill="#ABB2BF"/>
        <circle cx="2" cy="54" r="2" fill="#ABB2BF"/>
        <circle cx="27" cy="54" r="2" fill="#ABB2BF"/>
        <circle cx="52" cy="54" r="2" fill="#ABB2BF"/>
        <circle cx="77" cy="54" r="2" fill="#ABB2BF"/>
        <circle cx="102" cy="54" r="2" fill="#ABB2BF"/>
    </g>
    <g id="figma">
        <path d="M16 16C16 15.1159 16.3687 14.2681 17.0251 13.643C17.6815 13.0179 18.5717 12.6667 19.5 12.6667C20.4283 12.6667 21.3185 13.0179 21.9749 13.643C22.6313 14.2681 23 15.1159 23 16C23 16.8841 22.6313 17.7319 21.9749 18.357C21.3185 18.9821 20.4283 19.3333 19.5 19.3333C18.5717 19.3333 17.6815 18.9821 17.0251 18.357C16.3687 17.7319 16 16.8841 16 16ZM9 22.6667C9 21.7826 9.36875 20.9348 10.0251 20.3096C10.6815 19.6845 11.5717 19.3333 12.5 19.3333H16V22.6667C16 23.5507 15.6313 24.3986 14.9749 25.0237C14.3185 25.6488 13.4283 26 12.5 26C11.5717 26 10.6815 25.6488 10.0251 25.0237C9.36875 24.3986 9 23.5507 9 22.6667ZM16 6V12.6667H19.5C20.4283 12.6667 21.3185 12.3155 21.9749 11.6904C22.6313 11.0652 23 10.2174 23 9.33333C23 8.44928 22.6313 7.60143 21.9749 6.97631C21.3185 6.35119 20.4283 6 19.5 6H16ZM9 9.33333C9 10.2174 9.36875 11.0652 10.0251 11.6904C10.6815 12.3155 11.5717 12.6667 12.5 12.6667H16V6H12.5C11.5717 6 10.6815 6.35119 10.0251 6.97631C9.36875 7.60143 9 8.44928 9 9.33333ZM9 16C9 16.8841 9.36875 17.7319 10.0251 18.357C10.6815 18.9821 11.5717 19.3333 12.5 19.3333H16V12.6667H12.5C11.5717 12.6667 10.6815 13.0179 10.0251 13.643C9.36875 14.2681 9 15.1159 9 16Z" fill="currentColor"/>
    </g>
    <g id="github">
        <path d="M15.5 6C9.69875 6 5 10.5882 5 16.2529C5 20.7899 8.00562 24.6219 12.1794 25.9804C12.7044 26.0701 12.9012 25.7625 12.9012 25.4934C12.9012 25.2499 12.8881 24.4425 12.8881 23.5838C10.25 24.058 9.5675 22.9558 9.3575 22.3791C9.23938 22.0843 8.7275 21.1743 8.28125 20.9308C7.91375 20.7386 7.38875 20.2644 8.26813 20.2516C9.095 20.2388 9.68563 20.9949 9.8825 21.3025C10.8275 22.8533 12.3369 22.4175 12.9406 22.1484C13.0325 21.4819 13.3081 21.0334 13.61 20.777C11.2737 20.5207 8.8325 19.6364 8.8325 15.7147C8.8325 14.5997 9.23938 13.6769 9.90875 12.9592C9.80375 12.7029 9.43625 11.6519 10.0138 10.2422C10.0138 10.2422 10.8931 9.97301 12.9012 11.2931C13.7413 11.0624 14.6338 10.947 15.5263 10.947C16.4188 10.947 17.3113 11.0624 18.1513 11.2931C20.1594 9.9602 21.0387 10.2422 21.0387 10.2422C21.6163 11.6519 21.2488 12.7029 21.1438 12.9592C21.8131 13.6769 22.22 14.5868 22.22 15.7147C22.22 19.6492 19.7656 20.5207 17.4294 20.777C17.81 21.0975 18.1381 21.7126 18.1381 22.6738C18.1381 24.0452 18.125 25.1474 18.125 25.4934C18.125 25.7625 18.3219 26.0829 18.8469 25.9804C20.9314 25.2935 22.7428 23.9854 24.026 22.2403C25.3092 20.4953 25.9996 18.4012 26 16.2529C26 10.5882 21.3013 6 15.5 6Z" fill="currentColor"/>
    </g>
    <g id="line">
        <path fill-rule="evenodd" clip-rule="evenodd" d="M0.499992 191L0.5 -4.37114e-08L1.5 0L1.49999 191L0.499992 191Z"
              fill="#ABB2BF"/>
    </g>
    <g id="pink_logo">
        <path fill-rule="evenodd" clip-rule="evenodd" d="M0 14H13H26V27H13V40H26V53H13H0V40V27V14Z"/>
        <path d="M0 14V13H-1V14H0ZM26 14H27V13H26V14ZM26 27V28H27V27H26ZM13 27V26H12V27H13ZM13 40H12V41H13V40ZM26 40H27V39H26V40ZM26 53V54H27V53H26ZM0 53H-1V54H0V53ZM13 13H0V15H13V13ZM26 13H13V15H26V13ZM27 27V14H25V27H27ZM13 28H26V26H13V28ZM14 40V27H12V40H14ZM13 41H26V39H13V41ZM25 40V53H27V40H25ZM26 52H13V54H26V52ZM0 54H13V52H0V54ZM-1 40V53H1V40H-1ZM-1 27V40H1V27H-1ZM-1 14V27H1V14H-1Z"
              fill="#C778DD" mask="url(#path-1-inside-1_1103_3419)"/>
        <path fill-rule="evenodd" clip-rule="evenodd" d="M26 1H39H52V14V27V40H39H26V27H39V14H26V1Z"/>
        <path d="M26 1V0H25V1H26ZM52 1H53V0H52V1ZM52 40V41H53V40H52ZM26 40H25V41H26V40ZM26 27V26H25V27H26ZM39 27V28H40V27H39ZM39 14H40V13H39V14ZM26 14H25V15H26V14ZM39 0H26V2H39V0ZM52 0H39V2H52V0ZM53 14V1H51V14H53ZM53 27V14H51V27H53ZM53 40V27H51V40H53ZM39 41H52V39H39V41ZM39 39H26V41H39V39ZM27 40V27H25V40H27ZM26 28H39V26H26V28ZM38 14V27H40V14H38ZM26 15H39V13H26V15ZM25 1V14H27V1H25Z"
              fill="#C778DD" mask="url(#path-3-outside-2_1103_3419)"/>
    </g>
    <g id="pink_logo_v2">
        <mask id="path-1-inside-1_1103_3547" fill="white">
            <path fill-rule="evenodd" clip-rule="evenodd" d="M57.5 0H85.75H114V28.25V56.5H85.75V28.25H57.5V0ZM114 56.5V84.75H85.75H57.5V56.5H85.75H114Z"/>
        </mask>
        <path d="M57.5 0V-1H56.5V0H57.5ZM114 0H115V-1H114V0ZM114 56.5V57.5H115V56.5H114ZM85.75 56.5H84.75V57.5H85.75V56.5ZM85.75 28.25H86.75V27.25H85.75V28.25ZM57.5 28.25H56.5V29.25H57.5V28.25ZM114 84.75V85.75H115V84.75H114ZM114 56.5H115V55.5H114V56.5ZM57.5 84.75H56.5V85.75H57.5V84.75ZM57.5 56.5V55.5H56.5V56.5H57.5ZM85.75 -1H57.5V1H85.75V-1ZM114 -1H85.75V1H114V-1ZM115 28.25V0H113V28.25H115ZM115 56.5V28.25H113V56.5H115ZM85.75 57.5H114V55.5H85.75V57.5ZM84.75 28.25V56.5H86.75V28.25H84.75ZM57.5 29.25H85.75V27.25H57.5V29.25ZM56.5 0V28.25H58.5V0H56.5ZM115 84.75V56.5H113V84.75H115ZM85.75 85.75H114V83.75H85.75V85.75ZM85.75 83.75H57.5V85.75H85.75V83.75ZM58.5 84.75V56.5H56.5V84.75H58.5ZM57.5 57.5H85.75V55.5H57.5V57.5ZM114 55.5H85.75V57.5H114V55.5Z" fill="#C778DD" mask="url(#path-1-inside-1_1103_3547)"/>
        <mask id="path-3-outside-2_1103_3547" maskUnits="userSpaceOnUse" x="0" y="27.2501" width="59" height="87" fill="black">
            <rect fill="white" y="27.2501" width="59" height="87"/>
            <path fill-rule="evenodd" clip-rule="evenodd" d="M1 28.2501H29.25H57.5V56.5001H29.25V84.7501H57.5V113H29.25H1V84.7501V56.5001V28.2501Z"/>
        </mask>
        <path d="M1 28.2501V27.2501H0V28.2501H1ZM57.5 28.2501H58.5V27.2501H57.5V28.2501ZM57.5 56.5001V57.5001H58.5V56.5001H57.5ZM29.25 56.5001V55.5001H28.25V56.5001H29.25ZM29.25 84.7501H28.25V85.7501H29.25V84.7501ZM57.5 84.7501H58.5V83.7501H57.5V84.7501ZM57.5 113V114H58.5V113H57.5ZM1 113H0V114H1V113ZM29.25 27.2501H1V29.2501H29.25V27.2501ZM57.5 27.2501H29.25V29.2501H57.5V27.2501ZM58.5 56.5001V28.2501H56.5V56.5001H58.5ZM29.25 57.5001H57.5V55.5001H29.25V57.5001ZM30.25 84.7501V56.5001H28.25V84.7501H30.25ZM29.25 85.7501H57.5V83.7501H29.25V85.7501ZM56.5 84.7501V113H58.5V84.7501H56.5ZM57.5 112H29.25V114H57.5V112ZM1 114H29.25V112H1V114ZM0 84.7501V113H2V84.7501H0ZM0 56.5001V84.7501H2V56.5001H0ZM0 28.2501V56.5001H2V28.2501H0Z" fill="#C778DD" mask="url(#path-3-outside-2_1103_3547)"/>
    </g>
    <g id="big_Logo">
        <mask id="path-1-inside-1_1103_3692" fill="white">
            <path fill-rule="evenodd" clip-rule="evenodd"
                  d="M0 39.75H38.75H77.5V78.5H38.75V117.25H77.5V156H38.75H0V117.25V78.5V39.75Z"/>
        </mask>
        <path d="M0 39.75V38.75H-1V39.75H0ZM77.5 39.75H78.5V38.75H77.5V39.75ZM77.5 78.5V79.5H78.5V78.5H77.5ZM38.75 78.5V77.5H37.75V78.5H38.75ZM38.75 117.25H37.75V118.25H38.75V117.25ZM77.5 117.25H78.5V116.25H77.5V117.25ZM77.5 156V157H78.5V156H77.5ZM0 156H-1V157H0V156ZM38.75 38.75H0V40.75H38.75V38.75ZM77.5 38.75H38.75V40.75H77.5V38.75ZM78.5 78.5V39.75H76.5V78.5H78.5ZM38.75 79.5H77.5V77.5H38.75V79.5ZM39.75 117.25V78.5H37.75V117.25H39.75ZM38.75 118.25H77.5V116.25H38.75V118.25ZM76.5 117.25V156H78.5V117.25H76.5ZM77.5 155H38.75V157H77.5V155ZM0 157H38.75V155H0V157ZM-1 117.25V156H1V117.25H-1ZM-1 78.5V117.25H1V78.5H-1ZM-1 39.75V78.5H1V39.75H-1Z"
              fill="#C778DD" mask="url(#path-1-inside-1_1103_3692)"/>
        <mask id="path-3-outside-2_1103_3692" maskUnits="userSpaceOnUse" x="76.5" y="0" width="80" height="119"
              fill="black">
            <rect fill="white" x="76.5" width="80" height="119"/>
            <path fill-rule="evenodd" clip-rule="evenodd"
                  d="M77.5 1H116.25H155V39.75V78.5V117.25H116.25H77.5V78.5H116.25V39.75H77.5V1Z"/>
        </mask>
        <path d="M77.5 1V0H76.5V1H77.5ZM155 1H156V0H155V1ZM155 117.25V118.25H156V117.25H155ZM77.5 117.25H76.5V118.25H77.5V117.25ZM77.5 78.5V77.5H76.5V78.5H77.5ZM116.25 78.5V79.5H117.25V78.5H116.25ZM116.25 39.75H117.25V38.75H116.25V39.75ZM77.5 39.75H76.5V40.75H77.5V39.75ZM116.25 0H77.5V2H116.25V0ZM155 0H116.25V2H155V0ZM156 39.75V1H154V39.75H156ZM156 78.5V39.75H154V78.5H156ZM156 117.25V78.5H154V117.25H156ZM116.25 118.25H155V116.25H116.25V118.25ZM116.25 116.25H77.5V118.25H116.25V116.25ZM78.5 117.25V78.5H76.5V117.25H78.5ZM77.5 79.5H116.25V77.5H77.5V79.5ZM115.25 39.75V78.5H117.25V39.75H115.25ZM77.5 40.75H116.25V38.75H77.5V40.75ZM76.5 1V39.75H78.5V1H76.5Z"
              fill="#C778DD" mask="url(#path-3-outside-2_1103_3692)"/>
    </g>
    <g id="middle_logo">
        <mask id="path-1-inside-1_1103_3640" fill="white">
            <path fill-rule="evenodd" clip-rule="evenodd"
                  d="M57.5 0H85.75H114V28.25V56.5V84.75H85.75H57.5V56.5H85.75V28.25H57.5V0Z"/>
        </mask>
        <path d="M57.5 0V-1H56.5V0H57.5ZM114 0H115V-1H114V0ZM114 84.75V85.75H115V84.75H114ZM57.5 84.75H56.5V85.75H57.5V84.75ZM57.5 56.5V55.5H56.5V56.5H57.5ZM85.75 56.5V57.5H86.75V56.5H85.75ZM85.75 28.25H86.75V27.25H85.75V28.25ZM57.5 28.25H56.5V29.25H57.5V28.25ZM85.75 -1H57.5V1H85.75V-1ZM114 -1H85.75V1H114V-1ZM115 28.25V0H113V28.25H115ZM115 56.5V28.25H113V56.5H115ZM115 84.75V56.5H113V84.75H115ZM85.75 85.75H114V83.75H85.75V85.75ZM85.75 83.75H57.5V85.75H85.75V83.75ZM58.5 84.75V56.5H56.5V84.75H58.5ZM57.5 57.5H85.75V55.5H57.5V57.5ZM84.75 28.25V56.5H86.75V28.25H84.75ZM57.5 29.25H85.75V27.25H57.5V29.25ZM56.5 0V28.25H58.5V0H56.5Z"
              fill="#C778DD" mask="url(#path-1-inside-1_1103_3640)"/>
        <mask id="path-3-outside-2_1103_3640" maskUnits="userSpaceOnUse" x="0" y="27.2501" width="59" height="87"
              fill="black">
            <rect fill="white" y="27.2501" width="59" height="87"/>
            <path fill-rule="evenodd" clip-rule="evenodd"
                  d="M1 28.2501H29.25H57.5V56.5001H29.25V84.7501H57.5V113H29.25H1V84.7501V56.5001V28.2501Z"/>
        </mask>
        <path d="M1 28.2501V27.2501H0V28.2501H1ZM57.5 28.2501H58.5V27.2501H57.5V28.2501ZM57.5 56.5001V57.5001H58.5V56.5001H57.5ZM29.25 56.5001V55.5001H28.25V56.5001H29.25ZM29.25 84.7501H28.25V85.7501H29.25V84.7501ZM57.5 84.7501H58.5V83.7501H57.5V84.7501ZM57.5 113V114H58.5V113H57.5ZM1 113H0V114H1V113ZM29.25 27.2501H1V29.2501H29.25V27.2501ZM57.5 27.2501H29.25V29.2501H57.5V27.2501ZM58.5 56.5001V28.2501H56.5V56.5001H58.5ZM29.25 57.5001H57.5V55.5001H29.25V57.5001ZM30.25 84.7501V56.5001H28.25V84.7501H30.25ZM29.25 85.7501H57.5V83.7501H29.25V85.7501ZM56.5 84.7501V113H58.5V84.7501H56.5ZM57.5 112H29.25V114H57.5V112ZM1 114H29.25V112H1V114ZM0 84.7501V113H2V84.7501H0ZM0 56.5001V84.7501H2V56.5001H0ZM0 28.2501V56.5001H2V28.2501H0Z"
              fill="#C778DD" mask="url(#path-3-outside-2_1103_3640)"/>
    </g>
    <g id="logo">
        <path fill-rule="evenodd" clip-rule="evenodd"
              d="M39 0H26V13H13H0V26V39V52H13H26V39H39H52V26V13V0H39ZM13 39H26V26H39V13H26V26H13V39Z" fill="white"/>
    </g>
    <g id="map">
        <path d="M9.5 25C9.5 25 19 16.1156 19 9.375C19 6.8886 17.9991 4.50403 16.2175 2.74587C14.4359 0.98772 12.0196 0 9.5 0C6.98044 0 4.56408 0.98772 2.78249 2.74587C1.00089 4.50403 3.75443e-08 6.8886 0 9.375C0 16.1156 9.5 25 9.5 25ZM9.5 14.0625C8.24022 14.0625 7.03204 13.5686 6.14124 12.6896C5.25045 11.8105 4.75 10.6182 4.75 9.375C4.75 8.1318 5.25045 6.93951 6.14124 6.06044C7.03204 5.18136 8.24022 4.6875 9.5 4.6875C10.7598 4.6875 11.968 5.18136 12.8588 6.06044C13.7496 6.93951 14.25 8.1318 14.25 9.375C14.25 10.6182 13.7496 11.8105 12.8588 12.6896C11.968 13.5686 10.7598 14.0625 9.5 14.0625Z"
              fill="#ABB2BF"/>
    </g>
    <g id="mail">
        <path d="M5.07187 9.20292C5.2168 8.57709 5.57307 8.01832 6.08232 7.6181C6.59158 7.21789 7.22365 6.99996 7.875 7H25.125C25.7764 6.99996 26.4084 7.21789 26.9177 7.6181C27.4269 8.01832 27.7832 8.57709 27.9281 9.20292L16.5 16.0865L5.07187 9.20292ZM5 10.8207V20.8847L13.3418 15.8442L5 10.8207ZM14.7189 16.6758L5.27456 22.3807C5.50791 22.8657 5.87619 23.2753 6.33656 23.5619C6.79693 23.8486 7.33044 24.0005 7.875 24H25.125C25.6695 24.0001 26.2028 23.8479 26.6629 23.561C27.123 23.274 27.491 22.8643 27.724 22.3793L18.2796 16.6744L16.5 17.7468L14.7189 16.6744V16.6758ZM19.6582 15.8457L28 20.8847V10.8207L19.6582 15.8442V15.8457Z"
              fill="#ABB2BF"/>
    </g>
    <g id="player">
        <path d="M15.192 10.394L2.466 17.778C1.386 18.404 0 17.646 0 16.384L0 1.61596C0 0.355964 1.384 -0.404037 2.466 0.223963L15.192 7.60796C15.4377 7.74821 15.6419 7.95094 15.7839 8.19558C15.926 8.44022 16.0008 8.71808 16.0008 9.00096C16.0008 9.28385 15.926 9.56171 15.7839 9.80635C15.6419 10.051 15.4377 10.2537 15.192 10.394Z"
              fill="#ABB2BF"/>
    </g>
    <g id="telegram">
        <path d="M7 10C7 9.11594 7.36875 8.2681 8.02513 7.64298C8.6815 7.01786 9.57174 6.66667 10.5 6.66667C11.4283 6.66667 12.3185 7.01786 12.9749 7.64298C13.6313 8.2681 14 9.11594 14 10C14 10.8841 13.6313 11.7319 12.9749 12.357C12.3185 12.9821 11.4283 13.3333 10.5 13.3333C9.57174 13.3333 8.6815 12.9821 8.02513 12.357C7.36875 11.7319 7 10.8841 7 10ZM0 16.6667C0 15.7826 0.368749 14.9348 1.02513 14.3096C1.6815 13.6845 2.57174 13.3333 3.5 13.3333H7V16.6667C7 17.5507 6.63125 18.3986 5.97487 19.0237C5.3185 19.6488 4.42826 20 3.5 20C2.57174 20 1.6815 19.6488 1.02513 19.0237C0.368749 18.3986 0 17.5507 0 16.6667ZM7 0V6.66667H10.5C11.4283 6.66667 12.3185 6.31548 12.9749 5.69036C13.6313 5.06523 14 4.21739 14 3.33333C14 2.44928 13.6313 1.60143 12.9749 0.976311C12.3185 0.35119 11.4283 0 10.5 0L7 0ZM0 3.33333C0 4.21739 0.368749 5.06523 1.02513 5.69036C1.6815 6.31548 2.57174 6.66667 3.5 6.66667H7V0H3.5C2.57174 0 1.6815 0.35119 1.02513 0.976311C0.368749 1.60143 0 2.44928 0 3.33333ZM0 10C0 10.8841 0.368749 11.7319 1.02513 12.357C1.6815 12.9821 2.57174 13.3333 3.5 13.3333H7V6.66667H3.5C2.57174 6.66667 1.6815 7.01786 1.02513 7.64298C0.368749 8.2681 0 9.11594 0 10Z"
              fill="#ABB2BF"/>
    </g>
    <g id="arrow">
        <line x1="0.707107" y1="1.29289" x2="5.70711" y2="6.29289" stroke="#ABB2BF" stroke-width="2"/>
        <line x1="4.29289" y1="6.29289" x2="9.29289" y2="1.29289" stroke="#ABB2BF" stroke-width="2"/>
    </g>
    <g id="calendar">
        <path d="M4.375 0C4.54076 0 4.69973 0.065848 4.81694 0.183058C4.93415 0.300269 5 0.45924 5 0.625V1.25H15V0.625C15 0.45924 15.0658 0.300269 15.1831 0.183058C15.3003 0.065848 15.4592 0 15.625 0C15.7908 0 15.9497 0.065848 16.0669 0.183058C16.1842 0.300269 16.25 0.45924 16.25 0.625V1.25H17.5C18.163 1.25 18.7989 1.51339 19.2678 1.98223C19.7366 2.45107 20 3.08696 20 3.75V17.5C20 18.163 19.7366 18.7989 19.2678 19.2678C18.7989 19.7366 18.163 20 17.5 20H2.5C1.83696 20 1.20107 19.7366 0.732233 19.2678C0.263392 18.7989 0 18.163 0 17.5V6.25H20V5H0V3.75C0 3.08696 0.263392 2.45107 0.732233 1.98223C1.20107 1.51339 1.83696 1.25 2.5 1.25H3.75V0.625C3.75 0.45924 3.81585 0.300269 3.93306 0.183058C4.05027 0.065848 4.20924 0 4.375 0V0Z"
              fill="#ABB2BF"/>
    </g>
    <g id="x">
        <path d="M25.1733 0H30.08L19.3067 13.5793L31.8933 32H22.016L14.2827 20.8059L5.42933 32H0.52266L11.936 17.476L-0.11734 0H10.0053L16.992 10.2258L25.1733 0ZM23.456 28.8118H26.176L8.57599 3.07011H5.65333L23.456 28.8118Z"
              fill="#ABB2BF"/>
    </g>
    <g id="twitter">
        <path d="M11.2249 26C19.9045 26 24.6526 18.6883 24.6526 12.3587C24.6526 12.1541 24.6526 11.9466 24.6439 11.742C25.5683 11.0617 26.3661 10.2194 27 9.25459C26.1365 9.64165 25.2215 9.89676 24.2846 10.0116C25.2715 9.41189 26.0106 8.46827 26.3646 7.35615C25.4374 7.91461 24.4226 8.30664 23.3646 8.51509C22.6533 7.74493 21.712 7.23473 20.6866 7.0635C19.6612 6.89228 18.6089 7.06959 17.6927 7.56797C16.7764 8.06635 16.0474 8.85799 15.6185 9.82026C15.1896 10.7825 15.0848 11.8617 15.3203 12.8907C13.444 12.795 11.6084 12.2995 9.93262 11.4362C8.25682 10.5728 6.77823 9.36104 5.59275 7.87935C4.99093 8.93611 4.80726 10.1861 5.07905 11.3756C5.35085 12.565 6.05772 13.6047 7.05612 14.2835C6.30796 14.2576 5.57625 14.0534 4.92 13.6872V13.753C4.92129 14.86 5.2985 15.9326 5.98788 16.7895C6.67726 17.6464 7.63651 18.2351 8.7035 18.4559C8.2985 18.5694 7.88014 18.6259 7.46006 18.624C7.16391 18.6249 6.86836 18.597 6.57744 18.5407C6.87901 19.4937 7.46621 20.3269 8.25679 20.9236C9.04738 21.5203 10.0018 21.8507 10.9863 21.8685C9.3138 23.2039 7.24789 23.9282 5.12125 23.9247C4.74652 23.9263 4.37206 23.9044 4 23.859C6.15843 25.258 8.66512 26.0008 11.2249 26Z" fill="#currentColor"/>
    </g>
    <g id="up_quotes">
        <path d="M10.56 15.616C10.56 17.0453 10.0373 18.2507 8.992 19.232C7.968 20.2133 6.72 20.704 5.248 20.704C3.73333 20.704 2.47467 20.2133 1.472 19.232C0.490667 18.2507 0 17.0453 0 15.616C0 14.9333 0.096 14.208 0.288 13.44C0.48 12.672 0.864 11.68 1.44 10.464L6.4 0H11.2L8.544 11.584C9.14133 12.0107 9.62133 12.576 9.984 13.28C10.368 13.9627 10.56 14.7413 10.56 15.616ZM24.8 15.616C24.8 17.0453 24.2773 18.2507 23.232 19.232C22.1867 20.2133 20.9387 20.704 19.488 20.704C18.016 20.704 16.768 20.2133 15.744 19.232C14.7413 18.2507 14.24 17.0453 14.24 15.616C14.24 14.9333 14.336 14.208 14.528 13.44C14.72 12.672 15.1147 11.68 15.712 10.464L20.704 0H25.472L22.784 11.584C23.4027 12.0107 23.8933 12.576 24.256 13.28C24.6187 13.9627 24.8 14.7413 24.8 15.616Z"
              fill="#ABB2BF"/>/>
    </g>

</svg>
